<svg width="560" height="160" viewBox="0 0 560 160" fill="none" xmlns="http://www.w3.org/2000/svg">
  <defs>
    <linearGradient id="brand-gradient" x1="36" y1="20" x2="132" y2="116" gradientUnits="userSpaceOnUse">
      <stop stop-color="#66E0D3"/>
      <stop offset="1" stop-color="#2EB1A6"/>
    </linearGradient>
  </defs>
  <g transform="translate(16 18)">
    <path d="M20 64C20 48.536 32.536 36 48 36H80C95.464 36 108 48.536 108 64C108 79.464 95.464 92 80 92H48C32.536 92 20 79.464 20 64Z" stroke="url(#brand-gradient)" stroke-width="8" stroke-linecap="round" stroke-linejoin="round"/>
    <path d="M64 18V110" stroke="url(#brand-gradient)" stroke-width="8" stroke-linecap="round"/>
    <path d="M24 64H104" stroke="url(#brand-gradient)" stroke-width="8" stroke-linecap="round"/>
    <path d="M64 64L46 46" stroke="url(#brand-gradient)" stroke-width="8" stroke-linecap="round"/>
    <path d="M64 64L82 82" stroke="url(#brand-gradient)" stroke-width="8" stroke-linecap="round"/>
  </g>
  <g transform="translate(152 42)">
    <text x="0" y="38" fill="white" font-family="Inter, Arial, sans-serif" font-size="30" font-weight="800" letter-spacing="4">INFINITE</text>
    <text x="0" y="76" fill="white" font-family="Inter, Arial, sans-serif" font-size="30" font-weight="800" letter-spacing="4">MATTERS</text>
    <line x1="0" y1="98" x2="38" y2="98" stroke="#2EB1A6" stroke-width="3" stroke-linecap="round"/>
    <text x="46" y="104" fill="#2EB1A6" font-family="Inter, Arial, sans-serif" font-size="16" font-weight="700" letter-spacing="4">BOOKKEEPING</text>
    <line x1="210" y1="98" x2="248" y2="98" stroke="#2EB1A6" stroke-width="3" stroke-linecap="round"/>
  </g>
</svg>
